<?xml version="1.0" encoding="UTF-8"?><svg id="Layer_1" xmlns="http://www.w3.org/2000/svg" viewBox="0 0 554.78 173.05"><defs><style>.cls-1{fill:#434c5e;}.cls-2{fill:#3b4252;}.cls-3{fill:#2e3440;}</style></defs><path class="cls-3" d="M19.73,31.74c-4.36-.91-8.89-4.46-13.57-10.64,4.75-.13,8.01-.2,9.77-.2,16.08,0,27.18,2.77,33.3,8.3,3.91,3.45,5.86,7.32,5.86,11.62,0,3.06-1.21,6.09-3.61,9.08-2.34,2.93-5.34,4.75-8.98,5.47-.46,.13-7.65,.88-21.58,2.25-5.47,.59-9.73,2.73-12.79,6.45-2.15,2.6-3.22,5.21-3.22,7.81,0,.91,.29,1.69,.88,2.34,.13,.13,9.15,3.58,27.05,10.35,5.08,1.89,8.53,6.15,10.35,12.79,.2,.52,.49,.78,.88,.78,.98,0,1.79-.49,2.44-1.46,1.43-2.08,2.8-5.08,4.1-8.98,.85-2.54,2.34-6.25,4.49-11.13,.65,2.48,.94,3.84,.88,4.1l-3.52,18.07c-.59,11.33-1.11,18.52-1.56,21.58-.46,3.06-1.69,8.17-3.71,15.33-4.56,15.95-8.5,26.01-11.82,30.18-2.67,3.32-5.37,4.98-8.11,4.98-2.15,0-4.04-.94-5.66-2.83-1.63-1.89-2.44-3.84-2.44-5.86,0-.52,3.19-15.98,9.57-46.39,.45-2.34,.68-4.59,.68-6.74,0-2.93-.94-5.63-2.83-8.11-.39-.45-8.27-7.29-23.63-20.51-1.95-1.63-2.93-4.17-2.93-7.62,0-7.81,4.52-13.8,13.57-17.97,9.05-4.17,14.13-7.23,15.23-9.18,.52-.98,.78-1.66,.78-2.05,0-.65-.91-1.92-2.73-3.81-2.93-3.06-5.31-5.73-7.13-8.01Zm70.31-12.21c-9.05-2.54-15.07-5.01-18.07-7.42-2.02-1.56-3.03-3.29-3.03-5.18,0-.45,.1-.78,.29-.98,1.04-1.24,7.78-1.86,20.21-1.86s21.68,1.4,26.95,4.2c1.69,.91,3.22,2.51,4.59,4.79,1.17,1.95,1.76,4.07,1.76,6.35,0,2.48-.72,4.1-2.15,4.88-1.69,.91-4.2,1.37-7.52,1.37-2.08,0-4.66-.13-7.71-.39l-1.95-.2c-7.03,0-15.95,2.44-26.76,7.32-7.16,3.19-10.74,6.35-10.74,9.47s1.5,6.84,4.49,11.52c1.82,2.8,3.42,4.2,4.79,4.2,2.67,0,5.57-2.21,8.69-6.64,4.82-6.97,7.73-11.1,8.74-12.4,1.01-1.3,2.03-2.25,3.08-2.83,1.95-1.11,3.81-1.66,5.57-1.66,6.51,0,14.06,1.4,22.66,4.2,8.46,2.8,12.7,7.71,12.7,14.75,0,3.65-2.21,5.47-6.64,5.47-2.02,0-4.36-.68-7.03-2.05-.72-.39-6.38-4.23-16.99-11.52-.78-.52-1.66-.78-2.64-.78-1.63,0-2.93,1.79-3.91,5.37,.2,6.71,1.3,10.06,3.32,10.06,1.3,0,3.74-.33,7.32-.98,.65-.13,1.2-.2,1.66-.2,2.34,0,4.39,.94,6.15,2.83,1.17,1.3,1.76,2.54,1.76,3.71,0,.52-.26,1.27-.78,2.25-.13,.39-3.81,4.1-11.04,11.13-.39,.39-.59,.85-.59,1.37,0,2.48,2.8,4.2,8.4,5.18,11,1.89,16.76,3,17.29,3.32,7.03,4.69,11.29,7.62,12.79,8.79,2.47,1.89,3.71,3.91,3.71,6.05,0,3.32-1.53,4.98-4.59,4.98-1.37,0-3.16-.26-5.37-.78-3.71-.78-9.25-1.72-16.6-2.83l4.1-1.76-13.38-7.81c-1.89-.72-3.39-1.07-4.49-1.07-1.56,0-2.57,.23-3.03,.68-.07,.07-.68,3.71-1.86,10.94-.26,1.82-2.6,3.81-7.03,5.96,8.85-2.15,16.34-3.22,22.46-3.22,5.27,0,10.64,1.5,16.11,4.49,9.05,4.95,13.57,11.82,13.57,20.61,0,4.49-1.33,8.85-4,13.09-.72,1.04-4.39,5.14-11.04,12.3-2.93,4.62-5.31,7.65-7.13,9.08-3.78,2.93-7.42,4.39-10.94,4.39-.98,0-3.09-.75-6.35-2.25-1.04-.46-2.44-.68-4.2-.68s-3.58,.2-5.47,.59c-10.94,2.21-17.71,3.32-20.31,3.32-.72,0-1.43-.16-2.15-.49-4.82-2.08-9.64-6.25-14.45-12.5-3.58-12.24-5.37-21.88-5.37-28.91,0-8.07,1.14-12.11,3.42-12.11,2.02,0,4.36,3.39,7.03,10.16,2.08-4.43,4.69-7.58,7.81-9.47,3.78-2.28,10.81-5.04,21.09-8.3l-20.7-5.18c-11.07,8.98-18.49,13.48-22.27,13.48-1.56,0-2.34-.75-2.34-2.25,0-.98,1.07-2.6,3.22-4.88,.65-.65,4.75-4.46,12.3-11.43-5.08-6.45-7.62-10.06-7.62-10.84,0-.65,.57-1.59,1.71-2.83,1.14-1.24,5.09-5.21,11.87-11.91l-7.52-6.93c-3.26-2.99-5.18-4.88-5.76-5.66s-1.01-2.08-1.27-3.91c-.33-2.67-.39-5.37-.2-8.11l.88-10.64c7.23-8.79,10.94-13.25,11.13-13.38,3.12-2.73,9.57-5.21,19.34-7.42Zm-4.69,62.99c-9.7,2.87-15.76,5.6-18.16,8.2-.59,.59-.88,1.21-.88,1.86,0,.91,.39,1.76,1.17,2.54,.85,.85,1.82,1.27,2.93,1.27,5.4,0,10.38-4.62,14.94-13.87Zm-13.67,51.46c5.86,1.37,11.04,2.05,15.53,2.05s6.64-2.44,6.64-7.32c0-1.37-.13-3.16-.39-5.37-5.21,1.82-9.25,2.83-12.11,3.03-5.73,.26-9.08,1.07-10.06,2.44-.78,1.17-1.17,2.6-1.17,4.3s1.43,6.35,4.3,13.96c3.38,8.85,5.63,13.61,6.74,14.26,.78,.46,1.63,.68,2.54,.68,3.25,0,5.86-1.43,7.81-4.3,1.17-1.89,1.76-4.17,1.76-6.84,0-2.08-.46-3.38-1.37-3.91-.07-.06-3.32-1.14-9.77-3.22-2.6-.85-4.62-2.15-6.05-3.91-1.56-1.89-3.03-3.84-4.39-5.86Zm7.62-62.4h1.66l.29-.29c2.47-.85,4.69-2.21,6.64-4.1l.29-1.17,.29-.88,.68-2.44v-8.4h-.98l-.29,.49-1.46,1.95-.78,1.37-.78,2.15-2.15,3.32-.39,.59-1.07,3.32-.39,.49-.39,1.07-.1,.49-1.07,.1v1.95Zm2.44,30.76l7.13,.39,2.73-.88,1.17-.68,.59-.59,.68-3.91v-.98l-.68-1.46c-.39-.59-.68-.88-.88-.88-.26,0-.55,.29-.88,.88l-1.27,2.44-2.83,3.12-2.34,.49-.59,.59-.88,.59h-.68l-1.27,.88Zm32.71,51.86l1.76,2.34c8.59-11.78,12.89-20.9,12.89-27.34s-4.59-9.57-13.77-9.57c-5.08,0-8.11,.72-9.08,2.15-1.24,1.82-1.86,4.75-1.86,8.79,0,1.24,.1,3,.29,5.27,8.98,.26,14.71,1.69,17.19,4.3,.85,.85,1.27,1.73,1.27,2.64,0,1.04-.52,1.99-1.56,2.83-.2,.2-5.47,1.43-15.82,3.71l-.88,7.91,9.57-3.03Z"/><path class="cls-2" d="M218.94,83.2c7.16-3.12,11.52-5.83,13.09-8.11,2.08-2.99,3.81-11.1,5.18-24.32,.72-6.18,2.57-13.64,5.57-22.36,2.21-6.58,3.32-11.95,3.32-16.11,0-4.43-3.78-7.06-11.33-7.91,5.99-2.54,10.55-3.81,13.67-3.81,.13,0,.49-.03,1.07-.1l.39,.1c4.88,1.24,7.8,2.04,8.74,2.39,.94,.36,1.74,.93,2.39,1.71,1.89,2.28,2.83,4.62,2.83,7.03,0,7.62-5.01,25.65-15.04,54.1,5.08-4.75,9.28-7.13,12.6-7.13,2.34,0,4.13,.72,5.37,2.15,.46,.59,.68,1.17,.68,1.76,0,2.21-2.51,5.11-7.52,8.69-5.99,4.23-9.7,7.36-11.13,9.38-3,4.17-4.49,10.55-4.49,19.14,0,3.06,1.2,20.96,3.61,53.71,.2,2.8,.29,5.21,.29,7.23,0,6.97-2.05,10.45-6.15,10.45-2.02,0-3.97-.81-5.86-2.44-3.52-3.19-5.86-11.85-7.03-25.98-.26-3.12-.39-5.76-.39-7.91,0-.06,.39-13.02,1.17-38.87l-7.23,2.93-7.71,5.47c-3.65,2.54-5.73,3.87-6.25,4-.59,.07-1.21,.1-1.86,.1-3.58,0-6.8-1.63-9.67-4.88-2.93-3.32-4.39-7-4.39-11.04,0-4.75,1.27-10.09,3.81-16.02,5.92-14.13,9.24-22.75,9.96-25.88,1.04-4.88,2.7-7.81,4.98-8.79,1.17-.52,2.15-.78,2.93-.78,2.67,0,5.18,1.33,7.52,4,2.6,2.93,3.91,6.71,3.91,11.33,0,5.4-2.34,14.32-7.03,26.76ZM284.08,12.99c1.11-2.99,2.21-5.13,3.32-6.4,1.11-1.27,2.93-2.55,5.47-3.86,3.58-1.82,6.41-2.73,8.5-2.73,3.52,0,8.62,2.93,15.33,8.79,.13,3.65,.2,6.48,.2,8.5,0,6.32-.88,11.52-2.64,15.62-.85,1.95-3.65,5.47-8.4,10.55-.39,.39-2.9,4.56-7.52,12.5-2.48,4.1-6.9,9.77-13.28,16.99,12.63-1.5,20.44-3.61,23.44-6.35l16.41-15.14c1.11-.98,2.57-1.46,4.39-1.46,4.75,0,8.98,1.69,12.69,5.08,1.76,1.69,2.64,3.81,2.64,6.35,0,3.45-1.27,6.38-3.81,8.79-1.56,1.56-3.12,2.67-4.69,3.32l-24.9,10.74c-5.34,2.28-10.52,10.91-15.53,25.88,10.09-8.27,18-12.4,23.73-12.4,4.23,0,7.78,1.56,10.64,4.69,2.34,2.6,3.52,5.73,3.52,9.38,0,7.81-6.05,18.72-18.16,32.71,10.55,.65,17.58,1.82,21.09,3.52,2.86,1.37,4.29,3.65,4.29,6.84,0,4.36-1.72,7.58-5.17,9.67-2.8,1.63-10.25,3.32-22.36,5.08,2.73-2.8,5.04-4.69,6.93-5.66,4.69-2.47,7.39-4.13,8.11-4.98,.2-.2,.45-.94,.78-2.25-3.52,.26-6.61,.39-9.28,.39-6.38,0-10.94-1.63-13.67-4.88-1.63-1.89-2.44-3.87-2.44-5.96,0-.85,.23-1.89,.68-3.12,.13-.33,4.26-7.49,12.4-21.48,.98-1.63,1.46-3.38,1.46-5.27s-.59-3.38-1.76-4.49c-.52-.52-1.04-.78-1.56-.78-4.04,0-8.89,2.54-14.55,7.62-4.56,4.04-7.13,10.71-7.71,20.02-.52,8.53-1.66,13.83-3.42,15.92-1.37,1.63-4.14,2.67-8.3,3.12-2.41-3-3.94-5.34-4.59-7.03-.72-1.89-1.07-4.56-1.07-8.01,0-9.63,1.59-18.59,4.79-26.86,3.19-8.14,7.88-17.77,14.06-28.91-7.36,3.39-13.87,5.08-19.53,5.08-3.32,0-6.09-1.46-8.3-4.39-1.76-2.41-2.64-5.18-2.64-8.3,0-2.8,.81-6.02,2.44-9.67,.39-.85,3.87-6.22,10.45-16.11,3.45-5.14,8.89-15.43,16.31-30.86,2.34-4.95,3.52-8.17,3.52-9.67,0-2.15-1.34-3.22-4-3.22-2.09,0-4.85,1.04-8.3,3.12Z"/><path class="cls-1" d="M406.83,55.47c5.08-9.18,9.73-15.33,13.96-18.46,4.95-3.58,10.19-5.37,15.72-5.37,3.32,0,6.22,.75,8.69,2.25,2.08,1.3,4.33,4.17,6.74,8.59,2.15-4.17,3.84-7.29,5.08-9.38,4.23-7.36,6.35-12.24,6.35-14.65v-3.71c0-2.34,.65-3.52,1.95-3.52,.26,0,2.96,2.12,8.11,6.35,.39,.26,.84,.39,1.37,.39,.71,0,6.51-2.96,17.38-8.89,4.04-2.21,7.19-3.32,9.47-3.32,5.79,0,12.86,2.41,21.19,7.23,11.59,6.77,20.77,14.98,27.54,24.61,2.93,4.1,4.39,8.85,4.39,14.26,0,3.97-1.01,6.71-3.03,8.2-.72,.52-1.5,.78-2.34,.78-.91,0-3.91-.78-8.98-2.34-8.53-2.67-14.03-4.33-16.5-4.98,8.46-1.11,12.7-2.86,12.7-5.27,0-1.76-5.11-7.1-15.33-16.02-2.28-2.02-4.72-4.39-7.32-7.13-5.73-5.99-9.9-8.98-12.5-8.98-3.12,0-8.17,1.86-15.14,5.57-4.95,2.67-8.2,5.66-9.77,8.98l-9.08,19.24-4.2,5.76c-2.8,4.49-4.66,6.61-5.57,6.35l-.39-.1-5.47-1.07-.68-.1c-.72,0-1.37,.42-1.95,1.27-.26,.46-.55,13.18-.88,38.18-1.69,10.42-2.54,16.76-2.54,19.04s.23,4.72,.68,7.13c.98,5.14,1.46,8.63,1.46,10.45,0,2.54-3.03,7-9.08,13.38l-15.04-16.41c-9.38,5.01-14.55,7.52-15.53,7.52-2.08,0-4.13-1.07-6.15-3.22-2.28-2.47-3.42-5.37-3.42-8.69,0-1.3,.81-11.07,2.44-29.3,.2-2.02,.29-3.94,.29-5.76,0-1.69-.33-7.29-.98-16.8-.72-10.09-1.14-15.79-1.27-17.09-.46-3.32-1.63-6.67-3.52-10.06-.07-.13-.1-.23-.1-.29,0-1.24,.85-1.86,2.54-1.86,1.95,0,4.85,2.41,8.69,7.23Zm7.52,14.06c4.88,.65,8.43,1.37,10.64,2.15,1.89,.65,4.56,1.95,8.01,3.91-.13-2.34-.2-4.17-.2-5.47,0-.72,.03-1.72,.1-3.03,.26-8.27,.39-13.05,.39-14.36,0-4.62-1.24-6.93-3.71-6.93-3.78,0-7.65,2.47-11.62,7.42-3.19,3.91-4.79,7.68-4.79,11.33,0,1.17,.2,2.31,.59,3.42l.59,1.56Zm-.29,37.5c6.64-8.2,9.96-14.32,9.96-18.36,0-3.45-2.83-6.05-8.5-7.81,.52,5.27,.78,9.83,.78,13.67,0,3.12-.75,7.29-2.25,12.5Zm19.04-11.43c-7.75,7.23-12.3,12.7-13.67,16.41l-3.22,8.3c10.29-5.4,15.62-8.37,16.02-8.89,1.37-1.76,2.05-3.94,2.05-6.54,0-1.37-.39-4.46-1.17-9.28Zm52.25-38.18l-10.45-2.44-4-6.93c12.24-.98,18.55-1.53,18.95-1.66,1.24-.39,2.38-1.43,3.42-3.12,1.63-2.41,2.44-4.69,2.44-6.84,0-.72-.59-3.74-1.76-9.08-.46-2.15-.98-3.77-1.56-4.88-.13-.26-.2-.45-.2-.59,0-.33,.39-.81,1.17-1.46,1.17-.98,2.64-1.46,4.39-1.46,3.91,0,6.9,1.3,8.98,3.91,.84,1.11,1.3,2.18,1.37,3.22l1.37,16.21c6.84,4.23,10.45,6.61,10.84,7.13,.78,1.24,1.17,2.44,1.17,3.61,0,4.1-3.09,6.19-9.28,6.25l-1.37,3.52c10.09,1.11,15.49,1.79,16.21,2.05,2.73,.85,5.08,2.7,7.03,5.57,1.76,2.6,2.64,5.24,2.64,7.91,0,1.63-1.53,6.51-4.59,14.65-4.17,11.26-7.32,17.58-9.47,18.95-.59,.39-5.37,1.5-14.36,3.32-.13,.07-.26,.2-.39,.39-.33,.52-.49,.81-.49,.88l.2,.39c.52,1.3,1.07,2.12,1.66,2.44,.32,.2,9.18,1.33,26.56,3.42,5.27,.65,9.28,2.67,12.01,6.05,1.63,2.02,2.44,3.91,2.44,5.66,0,1.24-.46,2.15-1.37,2.73-1.82,1.24-5.18,2.18-10.06,2.83-2.41,.26-5.76,1.01-10.06,2.25,1.69-.91,2.7-1.72,3.03-2.44,.13-.39,.26-.62,.39-.68l.2-.2-.2-.29c-.65-.85-1.14-1.33-1.46-1.46-.2-.06-2.51-.2-6.93-.39l-15.04-1.17c-.78,.13-1.37,.65-1.76,1.56-.07,.2-.2,9.21-.39,27.05,0,1.82-1.01,3.58-3.03,5.27-2.21,1.89-4.53,2.83-6.93,2.83-1.76,0-2.93-.26-3.52-.78l-14.36-12.7c-14.52-10.81-22.23-16.8-23.14-17.97-1.63-2.21-2.44-4.13-2.44-5.76,0-2.67,3.12-5.08,9.38-7.23,2.02-.72,9.5-2.47,22.46-5.27,3.97-.72,6.31-1.19,7.03-1.42,.71-.23,1.27-.67,1.66-1.32l-.29-4.2-14.75,.49-.49-.29c-2.61-1.69-4.92-4.3-6.93-7.81-5.01-8.79-8.33-18.2-9.96-28.22-.2-1.17-.29-2.02-.29-2.54,0-3.58,.88-6.74,2.64-9.47,2.47-3.91,9.7-7.39,21.68-10.45Zm10.25,100.78c.78-4.95,1.17-9.31,1.17-13.09,0-4.69-1.4-7.91-4.2-9.67-2.93-1.82-7.29-2.73-13.09-2.73-9.57,0-14.36,1.73-14.36,5.18,0,1.17,.55,2.12,1.66,2.83l28.81,17.48Zm-1.76-65.04c-7.55-.78-12.4-2.21-14.55-4.3-.26-.26-.49-.59-.68-.98s-.26-.59-.2-.59l14.26-6.25c-11.39-.2-17.45-.45-18.16-.78-2.48-.98-3.71-2.73-3.71-5.27,0-.39,.1-.68,.29-.88,.06-.13,7.39-2.44,21.97-6.93,.91-.33,1.37-.98,1.37-1.95,0-1.17-.65-1.76-1.95-1.76-1.17,0-2.51,.26-4,.78-1.76-.06-2.93-.1-3.52-.1-10.94,0-16.41,3-16.41,8.98,0,1.3,2.54,8.95,7.62,22.95,1.82,4.95,4.07,7.42,6.74,7.42,4.1,0,7.75-3.45,10.94-10.35Zm21.97-18.65c-.78,0-1.73,.29-2.83,.88-1.11,.59-1.82,1.17-2.15,1.76-.85,1.5-1.27,2.28-1.27,2.34,0,.13,2.05,2.7,6.15,7.71l-6.05,13.48c0,.46,.49,.94,1.46,1.46,.84,.46,1.46,.68,1.86,.68,2.34,0,3.91-2.7,4.69-8.11,.98-6.38,2.47-11.2,4.49-14.45,.13-.26,.2-.45,.2-.59l-.78-2.05c-.2-.52-.98-1.2-2.34-2.05-1.11-.72-2.25-1.07-3.42-1.07Z"/></svg>