<svg id="Layer_1" data-name="Layer 1" xmlns="http://www.w3.org/2000/svg" viewBox="0 0 393.75 129.54"><defs><style>.cls-1{fill:#4c566a}</style></defs><path class="cls-1" d="M84.1 68.07C81 73.25 77.82 78.33 75 82.58a2.73 2.73 0 0 0 1.62.56h.24c5-.4 9.49-15.95 9.53-16.1a7.63 7.63 0 0 0 0-2.87c-.76 1.29-1.52 2.6-2.29 3.9z"/><path class="cls-1" d="M299 0c-37 0-56.45 8.29-72.1 15-10.61 4.52-19 8.08-30 8.08s-19.42-3.56-30-8.08C151.2 8.29 131.71 0 94.76 0 34.11 0 3 3 2.66 3L0 3.24v28.68l1.94.7c8.13 2.94 13.36 23.86 17.55 40.67 1.16 4.65 2.26 9 3.39 13l.31 1.09c5.58 19.74 11.91 42.12 72.06 42.12s69.85-11.88 80.17-43.32c8.18-24.89 15.2-37 21.46-37s13.27 12.1 21.45 37c10.32 31.44 19.91 43.32 80.17 43.32s66.5-22.34 72.06-42.08l.31-1.09c1.13-4 2.23-8.39 3.39-13 4.19-16.81 9.42-37.73 17.55-40.67l1.94-.7V3.24L391.1 3c-.31 0-31.46-3-92.1-3zm52.19 107.41a11.72 11.72 0 0 1-1.74 2.22 12.25 12.25 0 0 1-2.11 2.08l-2.23 1.59a48.16 48.16 0 0 1-10.79 4.26 103.92 103.92 0 0 1-11.32 2.49 188.76 188.76 0 0 1-23.38 2.41 218.68 218.68 0 0 1-23.49-.35c-7.77-.62-15.27-1.49-22.66-3.89l-2.47-1.08-1.25-.54c-.41-.22-.82-.52-1.22-.77a23.63 23.63 0 0 1-4.51-3.41l-2-1.86-1.71-2.06c-.55-.7-1.15-1.35-1.65-2.06l-1.42-2.17a76.71 76.71 0 0 1-8-17.39 117.2 117.2 0 0 1-3.82-15.64c-.77-4.72-1.32-8.85-1.56-12.28s-.34-6.11-.36-8 0-2.81 0-2.81 0 1 .14 2.81.33 4.51.77 7.89a135.16 135.16 0 0 0 6.39 27.44 74.61 74.61 0 0 0 8.2 16.78l1.41 2c.49.67 1.08 1.27 1.62 1.91l1.65 1.91 1.9 1.68a26.71 26.71 0 0 0 8.89 5.25c6.6 2.06 14.29 3 21.84 3.5a221 221 0 0 0 23.18.14 186.79 186.79 0 0 0 23.05-2.17A101.09 101.09 0 0 0 333.6 115a48.6 48.6 0 0 0 10-3.77c6-3.7 8.91-10.45 11.45-16.49a124.14 124.14 0 0 0 5.43-18 152.16 152.16 0 0 0 3.82-27.95 72.08 72.08 0 0 0-.12-7.92c-.19-1.82-.29-2.8-.29-2.8s.16 1 .45 2.78a64.65 64.65 0 0 1 .54 7.94 140.62 140.62 0 0 1-2.78 28.29 125.45 125.45 0 0 1-5 18.4 65.25 65.25 0 0 1-4.36 9.59c-.51.81-1.05 1.56-1.56 2.34zM343.45 17l-2 .6c-1.49.45-3 .95-4.44 1.53a42.21 42.21 0 0 0-4.34 1.87 28.32 28.32 0 0 0-4 2.26l-1.72 1.44c-.51.51-1 1.17-1.55 1.74a71.26 71.26 0 0 0-5.17 7.48c-3.1 5.06-5.72 10-7.8 14.27s-3.71 7.92-4.74 10.51-1.52 4.1-1.52 4.1a107 107 0 0 1 5.49-15 142 142 0 0 1 7.46-14.58 71.41 71.41 0 0 1 5.23-7.72c.52-.6 1-1.19 1.57-1.8l1.9-1.64a28.94 28.94 0 0 1 4.18-2.42 42 42 0 0 1 4.47-1.84c1.4-.54 2.82-1 4.23-1.41.99.2 1.89.41 2.75.61zm-18.09 4.7c-9.2 9.66-23.42 39.3-21.73 45.3.05.15 4.56 15.7 9.54 16.1h.23c.93 0 2.13-.45 3-2.39.76-1.64 2-5.36 3.8-10.5 4.8-13.85 13.67-39.7 19.8-43.08 3.21-1.77 10.39-.84 17.95 1a37.37 37.37 0 0 1 2 7.57c2.94 16.6-3.94 58.81-15.62 69.53-6.39 5.86-29.19 10.12-54.22 10.12-14.15 0-26.67-1.43-34.35-3.91-21.15-6.83-28.27-48.29-28.27-66.16 0-18.22 34.67-30.94 84.3-30.94a180.46 180.46 0 0 1 24.6 1.32c-4.89 1.76-8.87 3.78-11.03 6.04zm45.75-13.63c-10.65-.45-25.88-.67-44.14-.81-9.13-.06-19 0-29.48.1a193.4 193.4 0 0 0-32.4 3.18 141.25 141.25 0 0 0-32.92 10.89c-5.44 2.44-10.91 5.12-16.77 7.25a55.1 55.1 0 0 1-18.56 3.54l-4.68-.22c-1.54-.13-3.19-.47-4.78-.71a61.77 61.77 0 0 1-9.1-2.57c-5.86-2.13-11.33-4.8-16.77-7.25a141.09 141.09 0 0 0-32.92-10.89A194.85 194.85 0 0 0 96.2 7.36c-10.48-.11-20.35-.15-29.49-.09-18.26.14-33.48.35-44.13.8s-16.74.81-16.74.81 6.05-.8 16.69-1.66 25.85-1.9 44.13-2.43c9.14-.29 19.07-.49 29.53-.64a173.36 173.36 0 0 1 33.12 2.64 145 145 0 0 1 33.88 10.89c5.51 2.42 10.95 5 16.52 7a58.85 58.85 0 0 0 8.44 2.32c1.42.19 2.76.49 4.25.61l4.44.22A50.84 50.84 0 0 0 214 24.67c5.57-2 11-4.56 16.52-7a144.81 144.81 0 0 1 33.85-10.88 174.52 174.52 0 0 1 33.12-2.63c10.48.14 20.39.34 29.53.63 18.29.54 33.5 1.62 44.14 2.43s16.68 1.66 16.68 1.66-6.08-.42-16.73-.81zm-231 110.15c-1.88.62-3.56 1-5.4 1.51s-3.76.76-5.65 1.08l-5.69.77-5.77.52a215.2 215.2 0 0 1-23.44.35A182.59 182.59 0 0 1 70.8 120c-7.61-1.39-15.18-3-21.93-6.74-3.5-2.08-5.65-5.1-7.61-8.3a65 65 0 0 1-4.32-9.59 127.28 127.28 0 0 1-5-18.37 141.78 141.78 0 0 1-2.74-28.2 64.42 64.42 0 0 1 .54-7.92c.29-1.81.45-2.78.45-2.78l-.29 2.79a74.44 74.44 0 0 0-.12 7.91 153.67 153.67 0 0 0 3.79 27.89 124.81 124.81 0 0 0 5.39 18c2.51 6 5.41 12.8 11.23 16.46 6.12 3.35 13.62 4.94 21.07 6.22a185.81 185.81 0 0 0 23 2.19 217.23 217.23 0 0 0 23.12-.15l5.67-.47 5.57-.7 5.39-1c1.75-.44 3.67-.9 5.25-1.42 6.58-2.31 11.64-7.39 15.29-12.79a75.41 75.41 0 0 0 8.14-16.72A134.88 134.88 0 0 0 169 58.88c.44-3.38.65-6.05.76-7.88s.15-2.8.15-2.8v2.81c0 1.81 0 4.52-.35 7.93s-.78 7.54-1.54 12.26a118.39 118.39 0 0 1-3.8 15.6 76.65 76.65 0 0 1-7.92 17.38c-3.61 5.69-8.84 11.42-16.22 14.04zM50.67 16.93c.87.28 1.74.54 2.61.87a42 42 0 0 1 4.47 1.84A29.36 29.36 0 0 1 62 22.07l1.91 1.64c.59.61 1 1.2 1.57 1.8a69.87 69.87 0 0 1 5.22 7.72 140 140 0 0 1 7.46 14.58c.3.67.56 1.29.83 1.93l-.48.77c-.36-.76-.72-1.53-1.11-2.34-2.09-4.29-4.72-9.17-7.82-14.27a68.36 68.36 0 0 0-5.17-7.48c-.5-.57-1-1.23-1.54-1.74l-1.72-1.44a29 29 0 0 0-4-2.26 41.29 41.29 0 0 0-4.33-1.83c-1.46-.58-2.94-1.08-4.44-1.53.62-.25 1.46-.48 2.29-.69zm-.62 10.2c5.67 3.14 13.72 25.61 18.65 39.93-1.11 1.93-2.23 3.85-3.28 5.71-2.7 4.72-5.07 9.21-7.18 13s-3.71 7.07-4.9 9.32l-1.8 3.57 2.29-3.28c1.39-2.12 3.5-5.09 5.83-8.76s5.14-7.92 8-12.55 5.86-9.59 8.85-14.56 5.88-10 8.54-14.74 5.08-9.21 7.19-13 3.71-7.07 4.91-9.32l1.79-3.57-2.28 3.28c-1.4 2.13-3.5 5.1-5.83 8.77s-5.14 7.91-8 12.54c-.8 1.27-1.62 2.62-2.42 3.94-4.58-9.86-10.85-20.59-15.73-25.71-2-2.09-5.55-4-9.92-5.64 6.61-1.17 15.4-1.74 27.21-1.74 49.63 0 84.3 12.72 84.3 30.94 0 17.87-7.12 59.33-28.27 66.16-7.68 2.48-20.2 3.91-34.35 3.91-25 0-47.83-4.26-54.22-10.12-11.68-10.72-18.56-52.93-15.62-69.53a33.9 33.9 0 0 1 2.41-8.48c5.95-1.2 11.21-1.52 13.83-.07z"/><path class="cls-1" d="M69.13 85c-1.33 2.55-2.32 4.75-3.07 6.25S65 93.66 65 93.66s.6-.75 1.59-2.11 2.42-3.3 4-5.69c3.24-4.75 7.41-11.21 11.28-17.79s7.6-13.3 10.21-18.43c1.32-2.55 2.32-4.75 3.06-6.25s1.1-2.39 1.1-2.39-.6.76-1.58 2.12-2.42 3.3-4 5.68c-1.77 2.6-3.81 5.72-5.94 9.08-.48-1.4-1-2.89-1.67-4.45-.51.88-1 1.76-1.55 2.64.68 1.86 1.18 3.38 1.53 4.52l-.09.14c-.22-.58-.47-1.23-.79-2s-.56-1.4-.9-2.19c-.6 1-1.19 2-1.78 3-2.88 4.78-5.73 9.55-8.51 14 .66 1.92 1.23 3.55 1.71 4.83A189.43 189.43 0 0 0 69.13 85zM264.78 74.09c2.89-4.61 5.87-9.59 8.85-14.56s5.88-10 8.55-14.74 5.08-9.21 7.19-13 3.71-7.07 4.9-9.32l1.79-3.57-2.28 3.28c-1.4 2.13-3.49 5.1-5.83 8.77s-5.13 7.91-8 12.54-5.85 9.57-8.84 14.51-5.88 10-8.55 14.74-5.08 9.21-7.19 13-3.71 7.07-4.9 9.32l-1.79 3.57L251 95.4c1.4-2.12 3.5-5.09 5.84-8.76s5.09-7.92 7.94-12.55zM279 68.07c3.9-6.59 7.6-13.3 10.22-18.43 1.32-2.55 2.31-4.75 3.06-6.25s1.1-2.41 1.1-2.41-.6.76-1.59 2.12-2.41 3.3-4 5.68c-3.25 4.75-7.37 11.21-11.29 17.79s-7.63 13.3-10.24 18.43c-1.32 2.55-2.32 4.75-3.06 6.25s-1.1 2.41-1.1 2.41.6-.75 1.59-2.11 2.41-3.3 4-5.69c3.31-4.75 7.39-11.21 11.31-17.79z"/></svg>