<?xml version="1.0" encoding="UTF-8"?><svg id="Layer_1" xmlns="http://www.w3.org/2000/svg" viewBox="0 0 356.4 113.74"><defs><style>.cls-1{fill:inherit;}.cls-2{fill:inherit;}</style></defs><path class="cls-2" d="M27.32,61.28c-.21-1.08-.5-1.82-.87-2.24-.21-.25-.73-.37-1.55-.37-1.37,0-2.67,.37-3.91,1.12l-4.1,.99c-.5,.58-.97,.93-1.43,1.05-.04,0-.79,.41-2.24,1.24-.91,.54-2.32,.83-4.22,.87l-5.09-1.55c-.62-.54-1.06-.89-1.3-1.05-1.74-1.28-2.61-2.55-2.61-3.79,0-1.41,.31-2.11,.93-2.11l3.41,.12c.45,0,1.26-.37,2.42-1.12,1.16-.29,2.15-.81,2.98-1.55,1.45-.45,2.63-.85,3.54-1.18,2.36-.21,4.01-.48,4.97-.81,1.74,.5,2.96,.77,3.66,.81,.54,.08,.99,.31,1.37,.68,1.32,.79,2.13,1.39,2.42,1.8,.7,1.2,1.37,3.17,1.99,5.9l-.37,1.18Zm5.09-17.94c.12-.74,.22-1.18,.28-1.3s.71-1.14,1.96-3.04c.17-.25,.25-.54,.25-.87,0-1.24-.81-2.61-2.42-4.1-2.19-2.03-3.44-3.04-3.72-3.04-.08,0-.23,.04-.43,.12-.17-.33-1.1-.45-2.79-.37-2.73-.29-4.72-.68-5.96-1.18-.79-.79-1.43-1.28-1.92-1.49l-1.37-.74c-.66-.21-1.2-.56-1.61-1.06-.91-1.28-1.72-2.13-2.42-2.55-2.73-1.45-4.1-2.83-4.1-4.16,0-.54,.12-.91,.37-1.12,.29-.25,1.59-.95,3.91-2.11,2.19-.12,3.58-.27,4.16-.43,.58,.21,.93,.31,1.06,.31l3.97-.37c.54,.33,1.1,.54,1.68,.62,1.49,.12,3.25,.41,5.28,.87,.33,.25,1.47,.85,3.41,1.8l.5,.62,.93,.56c.7,.79,1.26,1.28,1.68,1.49l.81,1.18c2.48,4.84,3.73,8.09,3.73,9.75,0,2.19-2.4,5.73-7.2,10.62Zm-6.71,48.67l-.68,.62c-.12,1.9-1.26,2.86-3.41,2.86s-4.26-.77-6.08-2.3c-1.16-1.04-1.74-2.01-1.74-2.92,0-.79,.31-1.78,.93-2.98,.29,.21,.54,.31,.74,.31,.37,0,.99-.6,1.86-1.8,1.45-1.95,2.55-3.89,3.29-5.84,.99-2.61,1.61-4.15,1.86-4.63,.25-.48,.62-.82,1.12-1.02,2.77-3.27,4.26-5.15,4.47-5.65,0-.33,.37-.64,1.12-.93,.46,1.28,.87,2.15,1.24,2.61,.12,.17,.19,.31,.19,.43,0,.37-.17,.66-.5,.87-.25,.08-.46,.52-.62,1.3-.33,1.33-.79,2.53-1.37,3.6-2.4,4.55-3.6,8.13-3.6,10.74,0,.83,.39,2.4,1.18,4.72Zm91.89-22.72l.31,.06-4.97,.25-3.35-.62-.19,.12c-.46-.25-.93-.41-1.43-.5-1.04-.08-2.34-.43-3.91-1.06-3.19-.54-4.78-.91-4.78-1.12l-4.66-1.93c-2.61-.66-4.33-1.24-5.15-1.74l-.93-.19c0-.08-.06-.17-.19-.25-6.71-1.61-10.62-3.21-11.73-4.78-.5-.45-.87-.68-1.12-.68-.58,0-.85,.41-.81,1.24l.12,3.35,.06,3.72,.37,2.24c0,2.11,.04,3.23,.12,3.35,.33,.41,.87,.62,1.61,.62,.04,0,2.77-.12,8.2-.37l3.66-.62c.5,0,1.3,.17,2.42,.5,.08,.25,1.49,1.26,4.22,3.04,1.12,3.06,1.68,4.86,1.68,5.4,0,.87-.43,1.76-1.3,2.67-.58,.66-.93,1.26-1.06,1.8l-.74,1.62c-.58,2.69-1.04,4.41-1.37,5.15-.91,1.95-1.43,3.41-1.55,4.41-.41,1.16-.7,2.21-.87,3.17-.21,1.24-.74,2.77-1.61,4.59-.91,2.81-1.61,4.49-2.11,5.03-.95,.95-1.92,1.43-2.92,1.43-.58,0-1.08-.21-1.49-.62-.12-.12-.95-1.97-2.48-5.53-.17-.12-.27-.19-.31-.19l-.12,.12c-.04,.41-.89,.72-2.55,.93-.41-.12-2.03,.39-4.84,1.55-1.82,.74-3.35,1.26-4.59,1.55-.91,.25-1.78,.77-2.61,1.55-.5,.29-.77,.44-.81,.44s-.14-.04-.31-.12c-.17-.04-.27-.06-.31-.06l-3.29,.43-1.43-.06-1.68,.12c-.21,0-.6-.17-1.18-.5-.04-.5-.31-1.45-.81-2.86-.08-.25-.12-.43-.12-.56,0-.17,.39-1.37,1.18-3.6v-.06l-3.41-6.08c-.79-1.45-1.18-3.7-1.18-6.77,0-2.57,.77-5.01,2.3-7.33,1.32-2.07,2.11-3.31,2.36-3.73,.04,.33,.06,.56,.06,.68,0,.66-.25,1.55-.74,2.67-.7,1.57-1.06,3.93-1.06,7.08,0,2.4,.35,4.28,1.06,5.65,1.86,3.64,3.14,5.46,3.85,5.46,.45,0,.68-.21,.68-.62,0-.13-.06-.31-.19-.56-.95-.37-1.68-1.1-2.17-2.17-.21-.66-.31-1.22-.31-1.68s.14-.89,.43-1.3c.17-.21,1.14-.6,2.92-1.18l1.24-.56c3.85-1.32,6.06-2.24,6.64-2.73,.41-.37,.74-.85,.99-1.43l.25-4.16-9.87,1.8c-.46-.41-.68-.77-.68-1.06,0-.58,.81-1.8,2.42-3.66,1.61-1.95,2.96-3.44,4.04-4.47,2.94-1.41,4.35-2.48,4.22-3.23l-.43-2.42c-.04-.12,.25-1.39,.87-3.79,.08-.41,.12-.72,.12-.93,0-.62-.12-1.93-.37-3.91-.08-.66-.12-1.3-.12-1.93,0-.54,.04-1.34,.12-2.42-.37-.5-.7-.75-.99-.75-.58,0-1.95,.99-4.1,2.98-.95,.54-1.66,1.18-2.11,1.92-.33,.66-.93,1.37-1.8,2.11-.5,.58-.99,.97-1.49,1.18l-4.28,4.9,.06,.19c-.95,1.12-1.82,1.97-2.61,2.55-2.11,1.41-5.03,3.81-8.75,7.2-3.97,1.28-6.58,1.88-7.82,1.8-.5,0-2.28,.21-5.34,.62-.17,.04-.64-.23-1.43-.81,.33-.04,.5-.15,.5-.31,0-.29-.29-.58-.87-.87,1.03,.37,1.9,.56,2.61,.56,.21,0,.79-.16,1.74-.5,.79-.13,1.45-.37,1.99-.75,.08-.08,.75-.39,1.99-.93,1.41-.62,4.04-2.79,7.88-6.52,.7-.83,1.34-1.47,1.92-1.93,.21-.21,3.44-3.7,9.69-10.49,.54-.87,1.61-2.07,3.23-3.6,1.49-1.41,2.24-2.57,2.24-3.48,0-.04-.02-.17-.06-.37l2.3-2.24c-3.6,1.41-7.97,3.46-13.1,6.15-3.27,1.78-5.07,3.15-5.4,4.1-.5,.95-1.12,1.68-1.86,2.17-.79,.99-1.64,1.49-2.55,1.49-.37,0-.87-.06-1.49-.19-.12-.33-.25-.52-.37-.56-.95-.29-1.72-.66-2.3-1.12-1.45-.87-2.17-2.24-2.17-4.1,0-1.2,.21-1.97,.62-2.3,.25-.25,1.03-.39,2.36-.43,1.49-.04,2.44-.1,2.86-.19l.37-.93,5.84-2.61c4.68-2.77,8.22-4.53,10.62-5.28,4.14-1.2,6.69-2.03,7.67-2.48,.97-.45,2.02-1.26,3.14-2.42,.83-.91,1.32-1.51,1.49-1.8,.16-.12,.25-.83,.25-2.11,.54-3.06,.81-4.68,.81-4.84l-.06-1.37c0-.33,.04-.89,.12-1.68-.04-.25-.06-.5-.06-.75,0-.12,.1-.6,.31-1.43l.06-2.3,.12-.31v-2.36c.21-.7,.31-1.39,.31-2.05-.04-2.07,.04-3.68,.25-4.84,.04-.16,.06-.29,.06-.37,0-.41-.17-.62-.5-.62-.21,0-.5,.06-.87,.19-1.24,.37-3.48,.6-6.71,.68l-1.37,.06h-.19c-.5,0-1.37-.45-2.61-1.37-.7-.5-1.47-.74-2.3-.74-.54,0-1.02,.12-1.43,.37-.7,.41-1.16,.62-1.37,.62-.41,0-.62-.29-.62-.87,0-1.53,3.44-3.85,10.31-6.95l1.43-1.74,2.86-.74c1.94-.87,2.98-1.3,3.1-1.3,.29,0,.81,.1,1.55,.31,.17,.08,.43,.15,.81,.19l.06,.19c1.49,.99,2.88,1.66,4.16,1.99,1.03,.91,1.59,1.55,1.68,1.93,.45,2.15,.68,3.29,.68,3.41,0,1.53-1.57,2.71-4.72,3.54,1.32,.99,2.15,1.66,2.48,1.99,.7,.7,1.06,1.57,1.06,2.61,0,.37-.04,.73-.12,1.06-.25,.87-.37,1.45-.37,1.74,0,.25,.14,.43,.43,.56h2.42c.58,0,1.22,.17,1.93,.5,1.9,.41,3.12,.83,3.66,1.24,.29,.08,.97,.68,2.05,1.8,.12,.58,.19,1.06,.19,1.43,0,1.7-.77,3.06-2.3,4.1-.33,.25-1.51,.89-3.54,1.92-1.7,.83-2.59,1.24-2.67,1.24l-1.49-.12-1.18,.81c-1.41,.5-2.15,.79-2.24,.87-.21,.33-.31,.72-.31,1.18s.14,1.04,.43,1.74c.95,0,1.72,.23,2.3,.68,2.24-.33,5.34-.93,9.31-1.8,.87-.21,2.3-.31,4.28-.31,.45,0,.81,.08,1.06,.25,.12,.08,.43,.7,.93,1.86,.54,.41,.81,.66,.81,.74s-.21,.5-.62,1.24c-.04,0-.06,.25-.06,.75l-.31-.12-2.36,.68-1.68-.19c-.08,0-.25,.04-.5,.12-.25,.21-2.15,.54-5.71,.99-2.28,.29-3.75,.81-4.41,1.55-.41,.46-.66,1.1-.74,1.92-.12,.91-.25,1.41-.37,1.49l-1.49,1.24c-.37,.91-.64,1.49-.81,1.74,.58,.79,1.26,1.35,2.05,1.68,.25,.08,1.34,.52,3.29,1.3,1.16,.12,2.32,.35,3.48,.68,1.74,.46,3.66,.87,5.77,1.24,1.08,.37,1.8,.6,2.17,.68,1.41,.37,2.19,.72,2.36,1.06l6.89,1.43,7.08,1.92c1.53,.79,2.55,1.33,3.04,1.61,1.03,.5,1.7,.89,1.99,1.18,.25,.29,.91,1.45,1.99,3.48,.16,.29,.56,.89,1.18,1.8ZM60.1,36.51c-.21,1.61-.49,2.77-.84,3.48-.35,.7-1.02,1.45-2.02,2.24-1.2,.79-2.09,1.18-2.67,1.18-.62,0-1.53-.37-2.73-1.12-1.24-.25-2.4-1.01-3.48-2.3-2.65-.45-3.97-1.92-3.97-4.41,0-.79,.29-1.63,.87-2.55-.04-.45,.21-.89,.75-1.3,3.1-1.41,5.15-2.09,6.15-2.05,2.03-.25,3.79-.58,5.28-.99h.25c.46,0,.68,.21,.68,.62,0,.12-.6,.56-1.8,1.3,.41,.66,.85,1.26,1.3,1.8,.5,.74,1.24,2.11,2.24,4.1Zm9.31,63.2l-.43-.56c.12-.46,.19-.87,.19-1.24,0-.08-.12-.6-.37-1.55-.08-.29-.12-.62-.12-.99s.02-.83,.06-1.37c-1.9,.54-3.97,1.45-6.21,2.73-1.12,.62-1.74,.99-1.86,1.12-.04,.12-.1,.41-.19,.87l.5-.12c.5,2.03,.93,3.06,1.3,3.1,.08,.33,1.06,.66,2.92,.99,2.24-.66,3.64-1.66,4.22-2.98Zm7.14-12.54c.21,.04,.37,.06,.5,.06,.29,.04,.54-.04,.75-.25,.08-.08,.14-.12,.19-.12s.12,.04,.25,.12l.37,.19c.29,.12,.85,.71,1.68,1.74,.21,.29,.31,.48,.31,.56,.04,.29-.97,.91-3.04,1.86-1.57,.79-2.34,1.74-2.3,2.86v.13l.37,.87c-.37,.54-.75,1.82-1.12,3.85l-.37,1.43,1.74-.5,2.73-.56,1.18-1.55c1.86-.04,2.86-.12,2.98-.25,.17-.21,.95-2.5,2.36-6.89,.62-.99,1.08-2.24,1.37-3.72,.79-4.01,1.18-6.37,1.18-7.08,0-1.24-.5-2.21-1.49-2.92-.25-.21-.68-.31-1.3-.31h-.62c-3.02,0-4.86,.27-5.53,.81l-2.92,1.43-.62,.25c-.46,.54-.68,.83-.68,.87s.06,.12,.19,.25c.62,.66,.95,1.24,.99,1.74l-.25,.93-.12,.62,.12,2.24c.04,.83,.1,1.26,.19,1.3,.04,.04,.23,.1,.56,.19,.08,0,.21-.04,.37-.12Z"/><path class="cls-1" d="M133.67,60.66c.74-.5,1.53-.81,2.36-.93,.12,0,.17-.08,.12-.25v-.19c-.08-.29-.12-.48-.12-.56,0-.5,.17-1.01,.5-1.55,.83-1.28,1.3-2.55,1.43-3.79,1.49-4.06,2.34-6.62,2.55-7.7,.08-.5,.14-.83,.19-.99l-1.99-3.73-.25-1.68-.12-.68c0-.87,.25-1.55,.75-2.05,.25-.25,.5-.37,.74-.37,.33,0,.85,1.03,1.55,3.1,3.14,4.43,4.76,6.75,4.84,6.95,.29,.7,.43,1.37,.43,1.99,0,1.86-.33,3.97-.99,6.33-.99,3.73-1.49,6.31-1.49,7.76l.06,5.96-.87,6.15c0,.17,.12,.7,.37,1.61-.21,1.24-.35,2.71-.43,4.41-.04,1.08-.41,1.99-1.12,2.73-.41,.41-.85,.62-1.3,.62s-.99-.31-1.61-.93l-1.3-.74-1.99-1.68c-.95-.33-1.92-.95-2.92-1.86-1.41-.74-2.48-1.7-3.23-2.86-1.08-.99-1.61-1.76-1.61-2.3,0-.66,.45-2.63,1.37-5.9,.45-1.66,1.01-2.96,1.68-3.91,.79-1.03,1.59-2.03,2.42-2.98Zm18.44-17.01c.74-1.41,1.3-2.3,1.68-2.67,.95-1.16,1.44-1.78,1.46-1.86,.02-.08,.18-.95,.47-2.61,.21-1.32,.39-2.3,.56-2.92,.04-1.57,.23-3.12,.56-4.66l.62-3.35,.5-2.55c.04-1.53,.23-3.04,.56-4.53,.29-1.41,.43-3.08,.43-5.03,0-2.11-.19-3.54-.56-4.28-.29-.66-1.14-1.26-2.55-1.8l.56-2.98c.54-.45,.93-.68,1.18-.68,.08,0,.21,.02,.37,.06,.95,.21,2.03,.37,3.23,.5,1.45,.12,2.44,.43,2.98,.93,1.9,1.61,2.86,3.79,2.86,6.52,0,1.82-.56,4.74-1.68,8.75l-4.53,16.14,2.48-1.99c1.82-.54,3.48-1.51,4.97-2.92l.37,.31c-.08,.7-.12,1.35-.12,1.93,0,.91,.52,1.78,1.55,2.61,1.9,1.53,3.02,2.61,3.35,3.23,.37,.66,.56,1.76,.56,3.29,0,2.48-1.7,3.79-5.09,3.91-.08,0-.39,.06-.93,.19-.83,.21-2.11,.31-3.85,.31h-.62l-.99,.06c-.62-.21-1.03-.39-1.24-.56-.12-.08-.21-.12-.25-.12-.41,0-.72,.25-.93,.74-.41,.87-.93,6.27-1.55,16.2,.08,3.48,.14,6.54,.19,9.19,.04,1.16,.31,3,.81,5.53l.43,2.67c.33,.46,.5,.83,.5,1.12l-.06,1.06-.12,2.55-.37,4.41,.68,3.85-.12,1.06v.25c.41,2.77,.72,4.76,.93,5.96v.56c0,1.33-.54,2.5-1.61,3.54-.75,1.45-1.2,2.34-1.37,2.67-.37,.75-.62,1.12-.74,1.12h-.06c-.12,0-.91-.97-2.36-2.92-1.2-1.37-1.74-3.95-1.61-7.76,.25-4.14,.12-6.23-.37-6.27l-.87-2.3c-.12-.33-.19-.64-.19-.93,0-.95,.29-2.44,.87-4.47,.66-2.24,.99-4.41,.99-6.52l-.25-13.85,.5-7.82c0-2.57,.06-4.95,.19-7.14l.19-.12c.04-1.53-.08-2.55-.37-3.04-.17-.25-1.06-.79-2.67-1.61-.12-.08-.19-.23-.19-.43,0-.33,.23-.5,.68-.5Zm10.49,11.42h.5c.62,0,.99-.04,1.12-.12l3.54-2.67c.37-.25,1.41-.62,3.1-1.12,3.06-.91,5.77-2.32,8.13-4.22,.21-.12,.7-.5,1.49-1.12,.12-.08,.23-.21,.31-.37l2.11-3.85v-.68l1.8-2.73,.12-.81c.54-.25,.89-.52,1.06-.81,1.78-2.52,3.08-4.59,3.91-6.21,.5-1.08,1.06-1.84,1.68-2.3,.33-.21,.89-.97,1.68-2.3,.08-.17,.31-.52,.68-1.06,2.86-3.43,4.24-5.84,4.16-7.2,.08-.45,.54-1.06,1.37-1.8,.83-.7,1.24-1.68,1.24-2.92,0-.54-.62-2.5-1.86-5.9-.17-.45-.25-.83-.25-1.12,0-.83,.72-2.28,2.17-4.35,.58-.83,.99-1.24,1.24-1.24l1.49-.19-.25,5.71c0,.21,.44,.83,1.3,1.86,.29,.37,1.03,.91,2.24,1.61,.95,.54,2.34,2.01,4.16,4.41,1.37,1.86,2.05,3.6,2.05,5.21,0,.99-.37,1.88-1.12,2.67-.17,.21-1.9,1.43-5.22,3.66l-2.17,2.86-1.99,2.05,5.78,.93,4.59,.81c2.44,0,3.93,.06,4.47,.19,.25,.12,.41,.25,.5,.37l1.93-.43c.08,0,.56,.25,1.43,.74,.29,.17,.52,.35,.68,.56,.95,0,1.68,.25,2.17,.75l.25-.12,2.67,.99,.81-.12,1.24,.31,1.43-.19c.33,0,.83,.27,1.49,.81,.25,.29,.5,.46,.74,.5,.21,.04,.75,.5,1.62,1.37l2.05,1.37c.41,.29,.91,1.41,1.49,3.35l.37,.87v2.3c0,1.33-.06,2.09-.19,2.3-.17,.21-.5,.43-.99,.68l-5.15-.25h-3.1l-1.74-.99-1.92-.43c-.21-.08-.5-.41-.87-.99-.41,.08-.77,.12-1.06,.12-.21,0-1.16-.37-2.86-1.12-.17-.04-.33-.06-.5-.06-1.16,0-2.71,.6-4.66,1.8l-4.53,1.3c-2.32,1.33-3.81,2.03-4.47,2.11-3.15,1.53-5.2,2.55-6.15,3.04-2.4,1.24-3.85,1.93-4.35,2.05l-7.33,2.24c-2.69,1.08-5.34,1.93-7.95,2.55-2.9,.54-4.86,1.06-5.9,1.55-.58,.29-1.01,.87-1.3,1.74-1.37,.5-2.42,.74-3.17,.74-1.7,0-3.12-.48-4.28-1.43-3.19-2.73-4.78-4.61-4.78-5.65,0-.58,.58-1.12,1.74-1.61Zm17.57,15.77c.74-2.11,1.68-3.17,2.79-3.17,.62,0,1.68,.68,3.17,2.05,1.24,.83,1.93,1.39,2.05,1.68,.21,.37,.93,1.97,2.17,4.78-1.78-4.1-3.56-6.15-5.34-6.15-.75,0-1.12,.56-1.12,1.68,0,.99,.93,2.73,2.79,5.21l.5,1.74,1.61,4.59,1.49,5.4c1.24,3.39,2.01,5.07,2.3,5.03l.99-.19c.08,0,.64,.39,1.68,1.18,.46,.37,.87,.56,1.24,.56,.25,0,.58-.1,.99-.31,1.53-.83,2.32-1.26,2.36-1.3,1.37-.58,2.26-1.06,2.67-1.43,.45-.41,1.18-.83,2.17-1.24,.37,.12,.7,.19,.99,.19,.25,0,.58-.12,.99-.37,.83-.54,1.43-.81,1.8-.81,.62-.04,1.1-.23,1.43-.56,.33,.08,.66,.12,.99,.12s.58-.14,.75-.43l.12-.12-.12-.44,.19-.25,.81-1.12,.31-.37,.37-.99,1.12-1.68s-.08-.08-.25-.12c.16-.08,.31-.23,.43-.43,.21-.54,.54-1.06,.99-1.55,.41-1.95,1.14-4.02,2.17-6.21l.5-1.99,.19-1.55v-2.17l.19-.62c-.62-.37-1.14-.56-1.55-.56-.37,0-.68,.1-.93,.31-1.08,.99-2.09,1.59-3.04,1.8-.29,.33-1.39,.74-3.29,1.24l-1.12,.87c-3.39,1.24-5.24,1.86-5.53,1.86-.25,0-.72-.21-1.43-.62-.58-.25-.99-.37-1.24-.37-1.12-.21-1.78-.5-1.99-.87-2.07-.58-3.1-1.3-3.1-2.17,0-.25,.12-.56,.37-.93,.08-.08,2.17-1.18,6.27-3.29,.58-.58,1.53-1.18,2.86-1.8,2.61-1.24,4.24-1.88,4.9-1.92,.46-.62,2.46-1.16,6.02-1.61l3.29-1.93,2.79-.37c.54,.29,1.49,.85,2.86,1.68,.78,.5,1.51,1.2,2.17,2.11l.93,.62c1.45,1.53,2.28,2.4,2.48,2.61,.12,.17,.45,1.14,.99,2.92l.62,2.17-.56,3.17s.04,.23,.13,.56c-.62,.54-1.3,1.45-2.05,2.73l-.31,.31-1.24,2.24-.74,1.18c-.75,1.66-1.18,2.61-1.3,2.86l-.5,.87c-.7,.58-1.16,1.2-1.37,1.86-.08,.29-.15,.5-.19,.62-.29,.7-.44,1.2-.44,1.49,0,.08,.7,.93,2.11,2.55,.29,.33,.44,.83,.44,1.49,0,.33-.13,1.28-.37,2.86l-3.1,.81h-.56c-.79,.17-1.47,.31-2.05,.43-.37,.37-.99,.6-1.86,.68l-1.49,.43-2.55-.31-.93,.12-1.74,.31-.31,.06c-.08,0-.25-.04-.5-.12-.21-.04-.48-.06-.81-.06-.46,0-.99,.02-1.61,.06-.95,.37-2.09,.89-3.41,1.55-1.08,.54-2.63,.91-4.66,1.12l-.12-.5-.43,.31-.81-.19c.7,1.45,1.06,2.73,1.06,3.85,0,1.37-.77,2.05-2.3,2.05-1.33,0-3.27-1.43-5.84-4.28-4.68-7-7.7-13.31-9.06-18.94-.42-1.86-.85-4.55-1.3-8.07-.08-.79-.13-1.53-.13-2.24,0-.21,.02-.5,.06-.87,.08-.37,.13-.68,.13-.93,0-.45-.15-.68-.44-.68-.17,0-.39,.08-.68,.25Zm12.29-26.82l.62,.25c.54,.25,1.16-.14,1.86-1.18,.12,.04,.25,.06,.37,.06,.33,0,.68-.27,1.06-.81l11.8-4.53c-1.78-1.08-2.92-1.82-3.41-2.24-2.57-1.99-3.97-2.92-4.22-2.79h-.12c-.25-.25-.87,.19-1.86,1.3-.41,.5-1.1,1.24-2.05,2.24-.33,.33-.52,.64-.56,.93l-.87,1.12-.19,.93c-1.12,.66-1.68,1.18-1.68,1.55,0,.04,.02,.1,.06,.19,.08,.29,.12,.52,.12,.68,0,.5-.31,1.26-.93,2.3Z"/><path class="cls-1" d="M263.65,32.53l.93,.99c.58,.79,.93,1.35,1.06,1.68,.58,1.41,1.01,2.28,1.3,2.61,.12,.17,.19,.58,.19,1.24,0,1.74,.41,4.35,1.24,7.82-.08,.7-.12,1.28-.12,1.74,0,.66,.14,1.72,.44,3.17l.25,.87,.87,9.62c-.13,1.08-.19,1.78-.19,2.11,.08,1.53,.62,4.22,1.62,8.07,.16,1.41,.31,2.17,.43,2.3,.29,.21,.56,.31,.81,.31,.58,0,1.66-.68,3.23-2.05,1.57-1.37,2.63-2.21,3.17-2.55,1.41-.91,2.15-1.61,2.24-2.11l-.06-4.97,.06-3.66-.19-1.99-.06-32.04c0-1.28-.1-1.99-.31-2.11-.08-.12-.83-.27-2.24-.43-1.78-.21-3.75-.43-5.9-.68,1.66-2.86,2.79-4.32,3.41-4.41,1.78-.33,3.08-.74,3.91-1.24,.29-1.7,.7-2.83,1.24-3.41,.16-.17,.97-.31,2.42-.43l1.43-.19c.29,0,.77,.21,1.43,.62,.91,.17,1.45,.31,1.62,.43l1.99,1.8,1.24,.81c1.74,2.86,2.61,4.43,2.61,4.72,0,.66-.19,1.49-.56,2.48-.62,1.57-.99,2.9-1.12,3.97l-.81,2.48c-.91,3.6-1.59,5.96-2.05,7.08-.29,.87-.58,3.75-.87,8.63l-.06,3.1c0,1.33-.02,2.44-.06,3.35-.04,1.2-.06,1.82-.06,1.86l.12,2.3-.56,3.85,.31,2.55-.44,2.79v.19l.13,1.74,.06,1.3c0,.74-.19,1.64-.56,2.67-.41,1.2-.62,2.11-.62,2.73,0,.12,.04,.29,.12,.5,.12,.37,.19,.58,.19,.62l-.31,1.18v.12l-.37,2.3c-.25,2.28-.58,3.91-.99,4.9-.62,1.95-1.26,2.92-1.92,2.92-.5,0-1.08-.25-1.74-.75-.46-.04-.75-.23-.87-.56-.33-.91-.48-1.53-.43-1.86l.37-2.36,.12-1.12,.12-.75c0-.21-.14-.52-.43-.93-.83,.62-1.95,1.66-3.35,3.1l-3.66,2.42c-.99,.87-2.21,1.3-3.66,1.3h-.31c-.58-.08-1.45-.12-2.61-.12-2.4-1.53-3.6-3.52-3.6-5.96,0-1.03,.33-1.86,.99-2.48,.33-.29,.66-.43,.99-.43,.29,0,.44,.15,.44,.43,0,.12-.27,.62-.81,1.49,.25,.04,.44,.06,.56,.06,1.37,0,2.05-.41,2.05-1.24,0-.12-.06-.31-.19-.56-.21-.29-.5-1.47-.87-3.54-.21-1.03-.6-1.84-1.18-2.42-.91-.91-1.37-1.49-1.37-1.74l.68-1.61,.43-2.61,.75-3.1-.5-5.59c-.7-11.63-1.16-17.92-1.37-18.87-.37-1.57-.93-2.73-1.68-3.48-1.08-.54-2.07-1.06-2.98-1.55-.66-.33-1.2-1.37-1.61-3.1-.54-2.4-.81-3.85-.81-4.35,0-.75,.23-1.3,.68-1.68l.87,2.61c.08,.79,1.08,1.9,2.98,3.35,.79,.62,1.32,1.28,1.61,1.99,.37,.95,.64,1.45,.81,1.49,.08,.04,.12,.08,.12,.12s-.06,.08-.19,.12Zm11.92,21.3c.29-.58,.43-1.1,.43-1.55,0-.21-1.41-1.72-4.22-4.53-.62-.66-1.39-1.7-2.3-3.1-.25-.41-.37-.66-.37-.75,0-.25,.12-.37,.37-.37,.46,0,2.71,.93,6.77,2.79,1.33,.62,2.36,1.51,3.1,2.67,.41,.62,.62,1.14,.62,1.55,0,.99-1.08,1.76-3.23,2.3-.29,.12-.62,.39-.99,.81l-.19,.19Zm15.52,24.34c-.04,.46-.06,.87-.06,1.24,0,1.86,.7,2.79,2.11,2.79,.29,0,8.32-2.63,24.09-7.89,1.9-.5,2.96-.83,3.17-.99,.25-.29,.37-.7,.37-1.24,0-.25-.06-1.2-.19-2.86-.66-.79-1.16-1.2-1.49-1.24l-2.86,.87-4.47,1.12c-1.37,1.08-2.15,1.61-2.36,1.61h-.19c-.25,.04-1.55-.45-3.91-1.49-.41-.29-.85-1.16-1.3-2.61-.04-.25-.27-.75-.68-1.49-.17-.29-.25-.5-.25-.62,0-.45,.72-1.41,2.17-2.86,.21-.25,.31-.5,.31-.75,0-.5-.79-2.88-2.36-7.14-.37-.87-1.35-1.64-2.92-2.3l-.31-.93c-.58-.37-.87-.77-.87-1.18,0-2.03,.79-4.3,2.36-6.83l.43-.74,1.24-1.18c-.91-.37-1.86-2.9-2.86-7.57-1.37-5.55-2.28-9.64-2.73-12.29,2.57,3.48,4.51,6.62,5.84,9.44,1.03,2.48,1.84,5.38,2.42,8.69-1.16,0-1.74,.25-1.74,.74,0,.37,.19,.56,.56,.56,.25,0,.56-.06,.93-.19,1.28-.45,2.92-.7,4.9-.74,2.32-.58,5.61-1.16,9.87-1.74,.66-.12,.99-.52,.99-1.18,0-.25-.02-.58-.06-.99-.04-.7-.06-1.76-.06-3.17l-.44-.99c-.37-1.7-.85-2.57-1.43-2.61-.33-.04-.73-.02-1.18,.06h-.56c-.5-.04-1.22-.08-2.17-.12l-3.35-.19-2.61-1.3-1.74-.75c1.16,.08,2.19,.12,3.1,.12,.37,0,.83-.02,1.37-.06,2.44-.25,3.74-.37,3.91-.37,1.9-.04,3.06-.45,3.48-1.24l-.12-3.85c.21-1.57,.5-2.48,.87-2.73-.08-.17,.41-.5,1.49-.99,2.4,1.08,3.56,2.05,3.48,2.92l-.06,.56c1.28,.75,2.03,1.24,2.24,1.49,.29,.37,.62,.74,.99,1.12,1.99,1.78,2.9,3.23,2.73,4.35-.13,.91-.52,1.41-1.18,1.49-.29,.54-.52,.89-.68,1.06-.37,.46-.62,1.16-.75,2.11-.21,.21-.35,.77-.43,1.68-.04,.46-.25,1.18-.62,2.17,1.12-.21,1.86-.31,2.24-.31,2.19-.12,3.68-.41,4.47-.87l1.49-.56c1.24-.91,2.03-1.37,2.36-1.37,.66,0,1.47,.19,2.42,.56,1.41,.41,2.4,.83,2.98,1.24,.37,.25,.81,.46,1.3,.62,.25,.21,.56,.33,.93,.37,1.2,.66,2.15,1.61,2.86,2.86,.99,1.41,1.49,2.63,1.49,3.66,0,.79-1.08,1.78-3.23,2.98-2.07,1.16-3.73,3.23-4.97,6.21-.95,2.28-2.13,4.49-3.54,6.64-.5,1.37-1.1,2.4-1.8,3.1-.41,.37-.97,.83-1.68,1.37-.58,1.78-1.37,2.88-2.36,3.29-.62-.17-1.18-.52-1.68-1.06l-.12,.12-.19,.06-.87,.99-.43,.19v1.3l-.37,.99,.06,.25-.06,.99c0,.21,.17,.52,.5,.93,.5,.62,1.22,.93,2.17,.93s2.01-.14,3.17-.43c.74-.08,1.24-.14,1.49-.19,1.37-.21,2.21-.31,2.55-.31,.79,0,1.59,.08,2.42,.25,.13,.04,.21,.06,.25,.06,.12,0,1.22-.25,3.29-.74,.37-.08,.74-.12,1.12-.12,.66,0,1.34,.12,2.05,.37,1.53,.58,2.46,.87,2.79,.87,.21,0,.58-.08,1.12-.25,1.45,.83,2.36,1.39,2.73,1.68,.21,.21,.77,1.18,1.68,2.92,.12,.12,.21,.31,.25,.56-.75,.25-1.24,.52-1.49,.81-.37,.41-.99,.87-1.86,1.37-3.35-.29-6.42-.56-9.19-.81-2.4-.25-4.31-.29-5.71-.12l-.31,.06c-1.41,.17-2.34,.27-2.79,.31-3.64,.25-5.8,.89-6.46,1.92v.12l-.06,.06,.06,.06c.08,.12,.21,.27,.37,.43,.08,.08,.12,.15,.12,.19,0,.12-.1,.35-.31,.68-.12,1.24-.39,3.66-.81,7.26l-.06,3.91-.75,3.79-.5,8.63c-.62,2.24-.93,3.43-.93,3.6,0,.21,.04,.48,.12,.81,.04,.12,.06,.25,.06,.37,0,.25-.06,.43-.19,.56-.04,.04-.12,.1-.25,.19-.29,.16-.64,.52-1.06,1.05l-1.74,1.37,.31-3.35-.93-16.51-.43-5.59c.12-1.37,.19-2.65,.19-3.85,0-2.44-.77-3.66-2.3-3.66-.54,0-1.18,.19-1.93,.56-.95,.54-2.88,1.2-5.77,1.99-1.12,.33-4.62,1.72-10.49,4.16-2.19,.91-4.37,1.37-6.52,1.37-1.53,0-2.71-.41-3.54-1.24-.79-.79-1.22-1.43-1.3-1.93-.17-.79-.71-1.74-1.62-2.86v-.06c.29-.12,.58-.79,.87-1.99,.37-1.41,.99-2.28,1.86-2.61ZM340.01,9.69c.41,.29,1.8,.89,4.16,1.8,2.03,.75,3.19,1.35,3.48,1.8,.79,1.16,1.51,2.03,2.17,2.61,0,.41,.17,1.24,.5,2.48,.08,.29,.12,.6,.12,.93,0,.5-.52,1.39-1.55,2.67l-3.79,.5c-4.51,2.82-6.85,4.22-7.02,4.22s-.29-.06-.37-.19c-1.86-2.57-4.28-3.85-7.26-3.85h-.93c5.17-2.98,7.76-5.34,7.76-7.08,0-.91-1.22-1.37-3.66-1.37-1.12,0-2.59,.1-4.41,.31-1.08,.12-3.13,.21-6.15,.25h-.62c-.42,.04-.68,.06-.81,.06-.29,0-.56-.08-.81-.25-.25-.12-.6-.19-1.06-.19-.17,0-.48,.02-.93,.06-.83,.29-1.41,.43-1.74,.43-.62,0-1.59-.12-2.92-.37-1.66,.33-3.02,.5-4.1,.5-.08,0-.29-.02-.62-.06-.83-.04-1.55-.06-2.17-.06-.41,0-1.9,1.06-4.47,3.17-.17,.12-.5,.19-.99,.19-.41,0-.93-.04-1.55-.12l-2.42-1.12h-.06c-.08,0-.21,.02-.37,.06h-.37c-.7,0-1.06-.25-1.06-.74,0-1.16,.7-2.34,2.11-3.54,1.95-1.61,3.97-2.42,6.08-2.42,1.03,0,2.96,.27,5.78,.81,1.86,.37,3.79,.56,5.77,.56,.08,0,.54-.02,1.37-.06l15.15-.5h3.1c1.78-1.32,2.81-1.99,3.1-1.99,.41,0,.93,.17,1.55,.5Zm-20.55,41.04c.87-.7,1.41-1.57,1.61-2.61,.08-.29,.27-1.26,.56-2.92,0-.58-.46-.87-1.37-.87s-3.31,.52-7.08,1.55c-1.03,.29-2.34,.91-3.91,1.86-.33,.21-.5,.5-.5,.87v.12c.04,.12,.1,.37,.19,.74,.41,2.65,1.03,3.97,1.86,3.97,.21,0,1.1-.29,2.67-.87,.95-.37,2.94-.99,5.96-1.86Zm-8.26,8.51c.33,2.81,1.08,4.22,2.24,4.22,.66,0,1.63-.21,2.92-.62,1.03-.29,2.57-.64,4.59-1.06-.29-.58-.43-.95-.43-1.12l.12-2.05-.5-1.12c-.17-1.37-.29-2.07-.37-2.11-.37-.25-.93-.37-1.68-.37-2.98,0-5.13,.62-6.46,1.86-.41,.41-.62,.83-.62,1.24,0,.29,.06,.66,.19,1.12Zm19.68-7.02c-.7,.62-1.18,1.35-1.43,2.17-.79,1.82-1.18,3.44-1.18,4.84,0,.41,.02,1.01,.06,1.8,1.57-.17,2.46-.33,2.67-.5,.41-.33,1.04-1.7,1.86-4.1,.21-.83,1.06-2.09,2.55-3.79,.29-1.7,1.12-4.26,2.48-7.7,.16-.45,.25-.93,.25-1.43,0-.41-.52-1.12-1.55-2.11-.41-.04-.85-.06-1.3-.06-.17,0-.72,.19-1.68,.56-2.11,.46-3.36,.74-3.76,.87-.39,.12-.67,.31-.84,.56-.75,1.12-1.12,1.99-1.12,2.61,0,.41,.14,.89,.43,1.43l.75,1.8c.79,.58,1.24,.95,1.37,1.12,.25,.33,.39,.97,.43,1.92Z"/></svg>